<svg width="25" height="25" viewBox="0 0 25 25" fill="none" xmlns="http://www.w3.org/2000/svg">
<path fill-rule="evenodd" clip-rule="evenodd" d="M14.6842 0.798549C13.4227 -0.266184 11.5773 -0.266182 10.3159 0.798549L9.16703 1.76822C8.63087 2.22076 7.96738 2.4956 7.26826 2.55472L5.77025 2.6814C4.12538 2.82051 2.82051 4.12538 2.6814 5.77025L2.55472 7.26826C2.4956 7.96738 2.22076 8.63087 1.76822 9.16705L0.798549 10.3159C-0.266184 11.5773 -0.266182 13.4227 0.798549 14.6842L1.76822 15.833C2.22076 16.3691 2.4956 17.0327 2.55472 17.7318L2.6814 19.2298C2.82051 20.8747 4.12538 22.1796 5.77025 22.3186L7.26826 22.4452C7.96738 22.5045 8.63087 22.7793 9.16705 23.2319L10.3159 24.2015C11.5773 25.2662 13.4227 25.2662 14.6842 24.2015L15.833 23.2319C16.3691 22.7793 17.0327 22.5045 17.7318 22.4452L19.2298 22.3186C20.8747 22.1796 22.1796 20.8747 22.3186 19.2298L22.4452 17.7318C22.5045 17.0327 22.7793 16.3691 23.2319 15.833L24.2015 14.6842C25.2662 13.4227 25.2662 11.5773 24.2015 10.3159L23.2319 9.16703C22.7793 8.63087 22.5045 7.96738 22.4452 7.26826L22.3186 5.77025C22.1796 4.12538 20.8747 2.82051 19.2298 2.6814L17.7318 2.55472C17.0327 2.4956 16.3691 2.22076 15.833 1.76822L14.6842 0.798549ZM18.6576 10.1913C19.2527 9.59625 19.2527 8.63143 18.6576 8.03635C18.0626 7.44125 17.0977 7.44125 16.5026 8.03635L10.8076 13.7313L8.49887 11.4226C7.90379 10.8275 6.93896 10.8275 6.34388 11.4226C5.74878 12.0177 5.74878 12.9825 6.34388 13.5776L9.73013 16.9638C10.3252 17.5589 11.29 17.5589 11.8851 16.9638L18.6576 10.1913Z" fill="#080812"/>
</svg>
