<svg width="32" height="32" viewBox="0 0 32 32" fill="none" xmlns="http://www.w3.org/2000/svg">
<path d="M16.2105 9.05263C17.0481 9.05263 17.8513 9.38534 18.4435 9.97756C19.0357 10.5698 19.3684 11.373 19.3684 12.2105C19.3684 12.6252 19.2867 13.0359 19.128 13.419C18.9693 13.8021 18.7367 14.1503 18.4435 14.4435C18.1503 14.7367 17.8021 14.9693 17.419 15.128C17.0359 15.2867 16.6252 15.3684 16.2105 15.3684C15.373 15.3684 14.5698 15.0357 13.9776 14.4435C13.3853 13.8513 13.0526 13.0481 13.0526 12.2105C13.0526 11.373 13.3853 10.5698 13.9776 9.97756C14.5698 9.38534 15.373 9.05263 16.2105 9.05263ZM16.2105 10.3158C15.708 10.3158 15.2261 10.5154 14.8707 10.8707C14.5154 11.2261 14.3158 11.708 14.3158 12.2105C14.3158 12.713 14.5154 13.195 14.8707 13.5503C15.2261 13.9056 15.708 14.1053 16.2105 14.1053C16.713 14.1053 17.195 13.9056 17.5503 13.5503C17.9056 13.195 18.1053 12.713 18.1053 12.2105C18.1053 11.708 17.9056 11.2261 17.5503 10.8707C17.195 10.5154 16.713 10.3158 16.2105 10.3158ZM10.2737 15.8232L16.2105 25.5874L22.1474 15.8232C22.7916 14.7368 23.1579 13.5368 23.1579 12.2105C23.1579 10.368 22.4259 8.60088 21.1231 7.298C19.8202 5.99511 18.0531 5.26316 16.2105 5.26316C14.368 5.26316 12.6009 5.99511 11.298 7.298C9.99511 8.60088 9.26316 10.368 9.26316 12.2105C9.26316 13.5368 9.62947 14.7368 10.2737 15.8232ZM23.2211 16.48L16.2105 28L9.2 16.48C8.44211 15.2295 8 13.7768 8 12.2105C8 10.033 8.86503 7.94458 10.4048 6.40481C11.9446 4.86503 14.033 4 16.2105 4C18.3881 4 20.4765 4.86503 22.0162 6.40481C23.556 7.94458 24.4211 10.033 24.4211 12.2105C24.4211 13.7768 23.9789 15.2295 23.2211 16.48Z" fill="white"/>
</svg>
