<svg width="32" height="32" viewBox="0 0 32 32" fill="none" xmlns="http://www.w3.org/2000/svg">
<path d="M27.8611 26.8024H4.80153C4.32373 26.8024 3.86551 26.6066 3.52766 26.2582C3.1898 25.9098 3 25.4373 3 24.9445V7.85783C3 7.3651 3.1898 6.89256 3.52766 6.54414C3.86551 6.19573 4.32373 6 4.80153 6H27.8611C28.3389 6 28.7971 6.19573 29.135 6.54414C29.4728 6.89256 29.6626 7.3651 29.6626 7.85783V24.9445C29.6626 25.4373 29.4728 25.9098 29.135 26.2582C28.7971 26.6066 28.3389 26.8024 27.8611 26.8024ZM4.80153 7.06162C4.59676 7.06162 4.40038 7.1455 4.25558 7.29482C4.11079 7.44414 4.02945 7.64666 4.02945 7.85783V24.9445C4.02945 25.1557 4.11079 25.3582 4.25558 25.5075C4.40038 25.6569 4.59676 25.7407 4.80153 25.7407H27.8611C28.0659 25.7407 28.2623 25.6569 28.407 25.5075C28.5518 25.3582 28.6332 25.1557 28.6332 24.9445V7.85783C28.6332 7.64666 28.5518 7.44414 28.407 7.29482C28.2623 7.1455 28.0659 7.06162 27.8611 7.06162H4.80153Z" fill="white"/>
<path d="M16.8769 16.8929L3.61768 6.95616L4.2199 6.10156L16.8563 15.5712L28.453 6.42535L29.0759 7.26934L16.8769 16.8929Z" fill="white"/>
</svg>
