<svg width="32" height="32" viewBox="0 0 32 32" fill="none" xmlns="http://www.w3.org/2000/svg">
<path d="M27.6988 20.0366L21.7938 17.3903C21.5262 17.2757 21.2343 17.2296 20.9444 17.2562C20.6546 17.2829 20.3759 17.3814 20.1338 17.5428C20.1092 17.5586 20.0858 17.5762 20.0638 17.5953L16.9775 20.2203C16.9455 20.2378 16.9098 20.2476 16.8734 20.2489C16.837 20.2502 16.8007 20.243 16.7675 20.2278C14.7838 19.2703 12.7288 17.2278 11.7675 15.2716C11.7515 15.2389 11.7432 15.203 11.7432 15.1666C11.7432 15.1302 11.7515 15.0943 11.7675 15.0616L14.4013 11.9366C14.4202 11.9135 14.4377 11.8893 14.4538 11.8641C14.613 11.621 14.7092 11.342 14.7336 11.0524C14.7581 10.7628 14.71 10.4717 14.5938 10.2053L11.9663 4.31035C11.8171 3.96236 11.559 3.67215 11.2308 3.48328C10.9027 3.2944 10.5221 3.21706 10.1463 3.26284C8.5128 3.47759 7.01341 4.27977 5.92829 5.51947C4.84318 6.75917 4.24659 8.35157 4.25001 9.99909C4.25001 19.7866 12.2125 27.7491 22 27.7491C23.6475 27.7523 25.2397 27.1556 26.4794 26.0705C27.719 24.9854 28.5213 23.4862 28.7363 21.8528C28.782 21.4788 28.7057 21.0999 28.5187 20.7727C28.3318 20.4454 28.0442 20.1873 27.6988 20.0366ZM22 26.2491C13.04 26.2491 5.75001 18.9591 5.75001 9.99909C5.74584 8.71651 6.20877 7.47627 7.05232 6.51011C7.89587 5.54394 9.06233 4.91795 10.3338 4.74909H10.3625C10.4129 4.75004 10.4618 4.76617 10.5028 4.79539C10.5439 4.82461 10.5751 4.86555 10.5925 4.91285L13.23 10.8016C13.2451 10.8343 13.2528 10.8699 13.2528 10.906C13.2528 10.942 13.2451 10.9776 13.23 11.0103L10.5913 14.1428C10.5716 14.1652 10.5536 14.189 10.5375 14.2141C10.3724 14.4662 10.2752 14.7566 10.2552 15.0573C10.2353 15.358 10.2934 15.6587 10.4238 15.9303C11.5325 18.2003 13.82 20.4703 16.115 21.5791C16.3883 21.7088 16.6905 21.7654 16.9921 21.7435C17.2938 21.7216 17.5846 21.6219 17.8363 21.4541C17.86 21.4378 17.8838 21.4203 17.9063 21.4016L20.9913 18.7766C21.0217 18.7602 21.0554 18.7506 21.0899 18.7485C21.1244 18.7463 21.159 18.7516 21.1913 18.7641L27.0975 21.4103C27.1458 21.4309 27.1863 21.4661 27.2135 21.5109C27.2406 21.5558 27.253 21.6081 27.2488 21.6603C27.0808 22.9324 26.4554 24.0997 25.4894 24.9442C24.5235 25.7887 23.2831 26.2525 22 26.2491Z" fill="white"/>
</svg>
