<svg width="24" height="24" viewBox="0 0 24 24" fill="none" xmlns="http://www.w3.org/2000/svg">
<path d="M19.5525 2.99791C19.3118 3.01576 19.0755 3.07224 18.8527 3.16516H18.8497C18.636 3.24991 17.6197 3.67741 16.0747 4.32541L10.5382 6.65716C6.56547 8.32966 2.66022 9.97666 2.66022 9.97666L2.70672 9.95866C2.70672 9.95866 2.43747 10.0472 2.15622 10.2399C1.98207 10.35 1.83246 10.4947 1.71672 10.6652C1.57872 10.8677 1.46772 11.1774 1.50897 11.4977C1.57647 12.0392 1.92747 12.3639 2.17947 12.5432C2.43447 12.7247 2.67747 12.8094 2.67747 12.8094H2.68347L6.34572 14.0432C6.50997 14.5704 7.46172 17.6994 7.69047 18.4202C7.82547 18.8507 7.95672 19.1199 8.12097 19.3254C8.19947 19.4304 8.29422 19.5182 8.40522 19.5887C8.46287 19.6233 8.52493 19.6501 8.58972 19.6682L8.55222 19.6592C8.56347 19.6622 8.57247 19.6712 8.58072 19.6742C8.61072 19.6824 8.63097 19.6854 8.66922 19.6914C9.24897 19.8669 9.71472 19.5069 9.71472 19.5069L9.74097 19.4859L11.9032 17.5172L15.5272 20.2974L15.6097 20.3327C16.365 20.6642 17.13 20.4797 17.5342 20.1542C17.9415 19.8264 18.0997 19.4072 18.0997 19.4072L18.126 19.3397L20.9265 4.99291C21.006 4.63891 21.0262 4.30741 20.9385 3.98566C20.8484 3.6598 20.6394 3.37958 20.3527 3.20041C20.1123 3.05416 19.8335 2.9836 19.5525 2.99791ZM19.4767 4.53541C19.4737 4.58266 19.4827 4.57741 19.4617 4.66816V4.67641L16.6875 18.8739C16.6755 18.8942 16.6552 18.9384 16.5997 18.9827C16.5412 19.0292 16.4947 19.0584 16.251 18.9617L11.8185 15.5634L9.14097 18.0039L9.70347 14.4114L16.9455 7.66141C17.244 7.38391 17.1442 7.32541 17.1442 7.32541C17.1652 6.98491 16.6935 7.22566 16.6935 7.22566L7.56147 12.8829L7.55847 12.8679L3.18147 11.3942V11.3912L3.17022 11.3889L3.19272 11.3799L3.21672 11.3679L3.23997 11.3597C3.23997 11.3597 7.14822 9.71266 11.121 8.04016C13.11 7.20241 15.114 6.35866 16.6552 5.70766C17.5693 5.32291 18.4843 4.94041 19.4002 4.56016C19.4617 4.53616 19.4325 4.53541 19.4767 4.53541Z" fill="#FD6C1F"/>
</svg>
