<svg width="24" height="24" viewBox="0 0 24 24" fill="none" xmlns="http://www.w3.org/2000/svg">
<path d="M15.478 6.68308C14.796 6.68297 14.1411 6.9338 13.6543 7.38159C13.1676 7.82937 12.8879 8.43833 12.8755 9.07741L12.8503 10.402C12.8489 10.4731 12.8314 10.5431 12.799 10.6075C12.7666 10.6718 12.7201 10.729 12.6624 10.7753C12.6048 10.8216 12.5374 10.8559 12.4646 10.8761C12.3918 10.8963 12.3153 10.9018 12.2401 10.8923L10.8383 10.714C8.99581 10.4785 7.22965 9.68292 5.53438 8.36003C4.9986 11.1437 6.04592 13.0722 8.57042 14.5599L10.1383 15.4833C10.2128 15.5271 10.2748 15.5873 10.3187 15.6588C10.3627 15.7302 10.3873 15.8106 10.3904 15.893C10.3935 15.9754 10.375 16.0573 10.3365 16.1315C10.298 16.2056 10.2407 16.2698 10.1697 16.3184L8.74094 17.2965C9.59082 17.3461 10.3976 17.3108 11.0671 17.1863C15.3012 16.3941 18.1165 13.4086 18.1165 8.48366C18.1165 8.08166 17.2074 6.68308 15.478 6.68308ZM11.0806 9.04629C11.0962 8.23561 11.3668 7.44727 11.8583 6.77998C12.3498 6.11269 13.0404 5.59611 13.8437 5.2949C14.647 4.99369 15.5273 4.92125 16.3744 5.08665C17.2214 5.25205 17.9975 5.64793 18.6056 6.22474C19.2437 6.22053 19.7867 6.37191 21 5.68229C20.7003 7.06153 20.5513 7.66032 19.9114 8.48366C19.9114 14.9106 15.6961 18.0357 11.418 18.8355C8.48606 19.3839 4.22052 18.4831 3 17.2872C3.62193 17.2418 6.15271 16.987 7.61555 15.9837C6.37708 15.2184 1.45191 12.502 4.68899 5.19956C6.20866 6.86249 7.74926 7.9942 9.31081 8.59467C10.3492 8.99415 10.6049 8.98658 11.0815 9.04713" fill="#FD6C1F"/>
</svg>
