<svg width="40" height="41" viewBox="0 0 40 41" fill="none" xmlns="http://www.w3.org/2000/svg">
<path d="M32.1613 13.563H29.2258V8.18366C29.2258 7.68805 28.8504 7.28711 28.3871 7.28711H24.6129C24.1496 7.28711 23.7742 7.68805 23.7742 8.18366V26.1147H20.8387C20.3754 26.1147 20 26.5156 20 27.0112V32.3906C20 32.8862 20.3754 33.2871 20.8387 33.2871H32.1613C32.6246 33.2871 33 32.8862 33 32.3906V14.4595C33 13.9639 32.6246 13.563 32.1613 13.563ZM27.5484 9.08021V31.494H25.4516V9.08021H27.5484ZM21.6774 27.9078H23.7742V31.494H21.6774V27.9078ZM31.3226 31.494H29.2258V15.3561H31.3226V31.494ZM16.5787 19.9586C19.3998 19.9586 21.6949 17.5053 21.6949 14.49C21.6949 11.4747 19.3998 9.0214 16.5787 9.0214C13.758 9.0214 11.4629 11.4747 11.4629 14.49C11.4629 17.5053 13.758 19.9586 16.5787 19.9586ZM16.5787 10.8145C18.4749 10.8145 20.0174 12.4631 20.0174 14.49C20.0174 16.5169 18.4749 18.1655 16.5787 18.1655C14.6826 18.1655 13.1404 16.5169 13.1404 14.49C13.1404 12.4631 14.6826 10.8145 16.5787 10.8145ZM20.5294 24.4055C19.3344 23.6664 17.9683 23.2762 16.5787 23.2762C12.2218 23.2762 8.67742 27.0654 8.67742 31.7224V32.3906C8.67742 32.8862 8.30201 33.2871 7.83871 33.2871C7.37541 33.2871 7 32.8862 7 32.3906V31.7224C7 26.076 11.2972 21.4831 16.5787 21.4831C18.2629 21.4831 19.9195 21.9568 21.3698 22.8541C21.7707 23.1019 21.9076 23.6499 21.6757 24.0792C21.4439 24.5074 20.93 24.6562 20.5294 24.4055Z" fill="white"/>
</svg>
