<svg width="40" height="41" viewBox="0 0 40 41" fill="none" xmlns="http://www.w3.org/2000/svg">
<path d="M8.5936 28.4076H12.2911C12.6236 28.4076 12.9163 28.1415 12.9163 27.8157V17.4745C12.9163 17.142 12.6236 16.9026 12.2911 16.9026H9.12562V16.1245C9.12562 10.259 13.7874 5.48415 19.5 5.48415C25.2126 5.48415 29.8744 10.259 29.8744 16.1245V16.9026H26.7089C26.3764 16.9026 26.0837 17.142 26.0837 17.4745V27.8157C26.0837 28.1482 26.3764 28.4076 26.7089 28.4076H27.6798V31.2472C27.6798 32.6039 26.5759 33.7278 25.2192 33.7278H19.9988C19.7527 32.6637 18.8283 31.9189 17.7177 31.9189C16.4209 31.9189 15.3702 32.963 15.3702 34.2598V34.3529C15.3702 35.6497 16.4209 36.7137 17.7177 36.7137C18.8217 36.7137 19.7461 35.9223 19.9988 34.9248H25.2192C27.2342 34.9248 28.8768 33.2622 28.8768 31.2472V28.4076H30.4064C31.8362 28.4076 33 27.2504 33 25.8206V19.4696C33 18.2593 32.202 17.2418 31.0714 16.9558V16.1245C31.0714 9.59401 25.8709 4.28711 19.5 4.28711C13.1291 4.28711 7.92857 9.59401 7.92857 16.1245V16.9558C6.79803 17.2418 6 18.2593 6 19.4696V25.8206C6 27.2504 7.16379 28.4076 8.5936 28.4076ZM18.9015 34.3529C18.9015 34.9913 18.3761 35.51 17.7377 35.51C17.0993 35.51 16.5739 34.9913 16.5739 34.3529V34.2598C16.5739 33.6213 17.0993 33.1026 17.7377 33.1026C18.3761 33.1026 18.9015 33.6213 18.9015 34.2598V34.3529ZM31.803 19.4696V25.8206C31.803 26.592 31.1778 27.2105 30.4064 27.2105H27.2808V18.0997H30.4064C31.1778 18.0997 31.803 18.6982 31.803 19.4696ZM7.19704 19.4696C7.19704 18.6982 7.82217 18.0997 8.5936 18.0997H11.7192V27.2105H8.5936C7.82217 27.2105 7.19704 26.5854 7.19704 25.8206V19.4696Z" fill="white"/>
</svg>
