<svg width="40" height="41" viewBox="0 0 40 41" fill="none" xmlns="http://www.w3.org/2000/svg">
<path d="M19.5624 9.29674L35.8671 16.7266C35.9703 16.7821 36.0219 16.9318 35.9912 17.0687C35.9703 17.1499 35.9187 17.2183 35.8671 17.2461L32.3396 18.8476V23.8016C32.5249 23.8572 32.6909 23.979 32.8134 24.1437L32.8343 24.1565C32.9987 24.3896 33.1018 24.7039 33.1018 25.046C33.1018 25.4009 32.989 25.7302 32.8134 25.9632C32.7618 26.0316 32.7006 26.1001 32.628 26.1557L32.9794 27.4684C32.989 27.4962 32.989 27.5368 32.989 27.5646C32.989 27.7143 32.8956 27.8383 32.7828 27.8383H31.4839C31.463 27.8383 31.442 27.8383 31.4227 27.8255C31.3099 27.7699 31.2583 27.6202 31.2889 27.4834L31.6402 26.1556C31.5677 26.1 31.5065 26.0316 31.4549 25.9632C31.2792 25.7301 31.1664 25.403 31.1664 25.0459C31.1664 24.7038 31.2792 24.3745 31.4549 24.1437L31.4646 24.1308C31.5983 23.9662 31.753 23.8443 31.9383 23.8016V19.025L29.0409 20.3528V26.7158C29.0409 28.9458 26.5447 30.342 23.3474 30.945C22.1308 31.1631 20.811 31.2871 19.5008 31.2871C18.181 31.2871 16.8709 31.1631 15.6542 30.945C12.4571 30.342 9.96079 28.948 9.96079 26.7158V20.3528L3.13285 17.2461C3.02971 17.1905 2.97815 17.0408 3.00876 16.904C3.02971 16.8228 3.08128 16.7543 3.13285 16.7265L19.4376 9.29673C19.4795 9.2839 19.5198 9.2839 19.5617 9.29673L19.5624 9.29674ZM32.2479 26.3332H32.1351H32.0223L31.7742 27.3039H32.5058L32.2479 26.3332ZM32.3092 25.758H32.3188C32.401 25.7174 32.4736 25.6618 32.5348 25.5806C32.6379 25.4437 32.6992 25.2513 32.6992 25.0461C32.6992 24.8536 32.6379 24.6633 32.5445 24.5393L32.5348 24.5265C32.4317 24.3897 32.2866 24.3084 32.1319 24.3084C31.9869 24.3084 31.8435 24.3897 31.75 24.5137L31.7403 24.5265C31.6372 24.6633 31.576 24.8408 31.576 25.0461C31.576 25.2513 31.6372 25.4437 31.7403 25.5806C31.7919 25.6618 31.8741 25.7174 31.9466 25.758H31.9563C32.0078 25.7858 32.0691 25.7987 32.1319 25.7987C32.1932 25.7987 32.256 25.7858 32.3076 25.758H32.3092ZM19.4784 17.2614C19.3656 17.2336 19.2818 17.1118 19.2931 16.96C19.3027 16.8103 19.4059 16.6991 19.5203 16.7269L32.1122 18.3818L35.1757 16.9856L27.5858 13.524L19.4992 9.84215L3.82266 16.9857L10.217 19.8999H10.2267L19.4993 24.1291C23.3975 22.3502 27.2955 20.5713 31.1957 18.8052L19.4804 17.2594L19.4784 17.2614ZM28.6363 20.5328L19.5605 24.6785C19.5186 24.6914 19.4783 24.6914 19.4364 24.6785L10.3605 20.5328V26.7184C10.3605 28.6214 12.702 29.8529 15.7025 30.4131C16.8982 30.6312 18.1987 30.7424 19.4975 30.7424C20.7964 30.7424 22.0969 30.6333 23.2926 30.4131C26.2931 29.8529 28.6345 28.6214 28.6345 26.7184V20.5328H28.6363Z" fill="white" stroke="white"/>
</svg>
