<svg width="31" height="34" viewBox="0 0 31 34" fill="none" xmlns="http://www.w3.org/2000/svg">
<path d="M28.6122 17.2966C28.6122 17.2966 28.643 17.2312 28.6672 17.199C28.6981 17.1497 28.73 17.1095 28.7454 17.0602C28.7608 17.0108 28.7685 16.9626 28.785 16.9132C28.7927 16.8639 28.8081 16.8157 28.8081 16.7583C28.8081 16.7009 28.8004 16.6607 28.785 16.6033C28.7773 16.554 28.7696 16.5058 28.7454 16.4564C28.73 16.4071 28.6981 16.3589 28.6672 16.3176C28.6441 16.2854 28.6364 16.2521 28.6122 16.22C19.9936 6.10705 11.0062 6.10705 2.3876 16.22C2.36448 16.2521 2.35677 16.2854 2.33256 16.3176C2.30173 16.3669 2.26981 16.4071 2.2544 16.4564C2.23899 16.5058 2.23128 16.554 2.21477 16.6033C2.20706 16.6527 2.19165 16.7009 2.19165 16.7583C2.19165 16.8157 2.19936 16.8559 2.21477 16.9132C2.22247 16.9626 2.23018 17.0108 2.2544 17.0602C2.26981 17.1095 2.30173 17.1577 2.33256 17.199C2.35567 17.2312 2.36338 17.2645 2.3876 17.2966C6.70083 22.349 11.1085 24.9199 15.4998 24.9199C19.891 24.9199 24.299 22.357 28.6119 17.2966H28.6122ZM15.5 23.288C11.7352 23.288 7.88333 21.0843 4.03905 16.7583C7.88333 12.4323 11.7341 10.2286 15.5 10.2286C19.2648 10.2286 23.1167 12.4323 26.961 16.7583C23.1167 21.0843 19.266 23.288 15.5 23.288ZM15.5 11.8608C12.9086 11.8608 10.8027 14.0565 10.8027 16.7583C10.8027 19.4601 12.9086 21.6558 15.5 21.6558C18.0914 21.6558 20.1974 19.4601 20.1974 16.7583C20.1974 14.0565 18.0914 11.8608 15.5 11.8608ZM15.5 20.0224C13.7695 20.0224 12.3693 18.5613 12.3693 16.7583C12.3693 14.954 13.7707 13.4942 15.5 13.4942C17.2306 13.4942 18.6308 14.9553 18.6308 16.7583C18.6308 18.5626 17.2294 20.0224 15.5 20.0224ZM17.0654 16.7583C17.0654 17.6559 16.3609 18.3904 15.5 18.3904C14.6392 18.3904 13.9346 17.6559 13.9346 16.7583C13.9346 15.8607 14.6392 15.1262 15.5 15.1262C16.3609 15.1262 17.0654 15.8607 17.0654 16.7583ZM2.19193 10.2286V3.69886C2.19193 3.2501 2.54421 2.88281 2.97463 2.88281H9.23747C9.66789 2.88281 10.0202 3.2501 10.0202 3.69886C10.0202 4.14762 9.66789 4.5149 9.23747 4.5149H3.75752V10.2284C3.75752 10.6771 3.40524 11.0444 2.97482 11.0444C2.5444 11.0444 2.19193 10.6773 2.19193 10.2286ZM28.8082 3.69886V10.2286C28.8082 10.6773 28.456 11.0446 28.0256 11.0446C27.5951 11.0446 27.2429 10.6773 27.2429 10.2286V4.51511H21.7629C21.3325 4.51511 20.9802 4.14783 20.9802 3.69906C20.9802 3.2503 21.3325 2.88302 21.7629 2.88302H28.0258C28.4562 2.88302 28.8082 3.2501 28.8082 3.69886ZM10.02 29.8174C10.02 30.2662 9.66772 30.6335 9.2373 30.6335H2.97446C2.54404 30.6335 2.19176 30.2662 2.19176 29.8174V23.2877C2.19176 22.839 2.54404 22.4717 2.97446 22.4717C3.40488 22.4717 3.75715 22.839 3.75715 23.2877V29.0012H9.2371C9.66752 29.0012 10.02 29.3687 10.02 29.8174ZM28.8082 23.2877V29.8174C28.8082 30.2662 28.456 30.6335 28.0256 30.6335H21.7627C21.3323 30.6335 20.98 30.2662 20.98 29.8174C20.98 29.3687 21.3323 29.0014 21.7627 29.0014H27.2427V23.2879C27.2427 22.8392 27.5949 22.4719 28.0254 22.4719C28.4558 22.4719 28.8082 22.839 28.8082 23.2877Z" fill="white"/>
</svg>
