<svg width="45" height="36" viewBox="0 0 45 36" fill="none" xmlns="http://www.w3.org/2000/svg">
<path d="M24.1935 21.6697C24.3046 21.8469 24.4983 21.9555 24.7062 21.9571C24.8221 21.9571 24.9348 21.9236 25.0316 21.8581C25.3014 21.6809 25.3856 21.3233 25.2252 21.0407L23.9173 18.9399V15.5076C23.9173 15.1691 23.6443 14.8945 23.3078 14.8945C22.9713 14.8945 22.6982 15.1691 22.6982 15.5076V19.1538C22.6982 19.2687 22.7316 19.3837 22.7967 19.4795L24.1935 21.6697Z" fill="white"/>
<path d="M21.8664 10.2071L21.3863 11.5392L20.1128 12.0649L18.8138 11.4605H18.8155C18.5704 11.3389 18.2759 11.3885 18.0835 11.5837L16.3402 13.3371C16.1393 13.534 16.0865 13.837 16.2091 14.0905L16.8185 15.3609L16.2959 16.6143L14.9544 17.0869L14.9527 17.0886C14.6905 17.1759 14.5152 17.4242 14.5169 17.7015V20.174C14.5169 20.4514 14.6922 20.6979 14.9527 20.7887L16.2942 21.2612L16.8168 22.5146L16.1903 23.8124C16.0695 24.0659 16.1222 24.3689 16.3214 24.5659L18.0647 26.3192C18.2605 26.5092 18.5516 26.5589 18.7968 26.4425L20.0787 25.785L21.3522 26.3106L21.8323 27.6341H21.8306C21.9208 27.8944 22.166 28.0691 22.4417 28.0639H24.9342C25.2065 28.0656 25.4517 27.8927 25.5436 27.6341L26.0237 26.3106L27.2972 25.785L28.5876 26.3894H28.5859C28.8345 26.5075 29.129 26.4579 29.3265 26.2678L31.0698 24.5145C31.2638 24.3124 31.3132 24.0128 31.1923 23.7594L30.5914 22.4889L31.114 21.2355L32.4555 20.763V20.7613C32.7177 20.6722 32.8914 20.4257 32.8914 20.1483V17.6758C32.8948 17.3985 32.7194 17.1502 32.4555 17.0629L31.114 16.5903L30.5914 15.337L31.1923 14.0665V14.0648C31.3132 13.8114 31.2638 13.51 31.0698 13.3097L29.3265 11.5563C29.1307 11.3629 28.8344 11.3132 28.5859 11.4348L27.2955 12.0392L26.0578 11.5392L25.5777 10.2157H25.5794C25.4875 9.95543 25.244 9.77907 24.9682 9.77736H22.4758C22.2017 9.77564 21.9583 9.94854 21.8664 10.2071ZM22.9389 11.0838H24.5086L24.9274 12.2584H24.9257C24.9887 12.433 25.1215 12.5717 25.2917 12.6436L27.1048 13.3799C27.2717 13.4552 27.4606 13.4552 27.6275 13.3799L28.7954 12.8371L29.8934 13.9244L29.335 15.0459C29.2618 15.2188 29.2618 15.4157 29.335 15.5887L30.0841 17.342H30.0858C30.159 17.5149 30.302 17.6485 30.4774 17.7101L31.6538 18.1228V19.6569L30.4774 20.0781C30.3038 20.1398 30.1624 20.2699 30.0858 20.4377L29.3367 22.2356L29.335 22.2339C29.2618 22.4085 29.2618 22.6037 29.335 22.7784L29.8662 23.8913L28.7954 25.0043L27.653 24.4701C27.4862 24.3964 27.2972 24.3964 27.1304 24.4701L25.3088 25.1978C25.1385 25.2697 25.0057 25.4084 24.9428 25.583L24.524 26.7491H22.9543L22.5202 25.5659C22.4555 25.3913 22.3227 25.2526 22.1541 25.1807L20.341 24.4359C20.1742 24.3605 19.9835 24.3605 19.8167 24.4359L18.6743 24.9701L17.5763 23.8828L18.1074 22.7698H18.1091C18.1875 22.5969 18.1875 22.3983 18.1091 22.2254L17.36 20.4275V20.4292C17.2885 20.2597 17.1489 20.1296 16.9753 20.0696L15.7989 19.6484V18.1485L16.9753 17.7359V17.7376C17.1506 17.6759 17.2902 17.5424 17.36 17.3694L18.1091 15.6161C18.1875 15.4432 18.1875 15.2446 18.1091 15.0716L17.578 13.9586L18.676 12.8714L19.8184 13.4056L19.8167 13.4073C19.9835 13.4809 20.1742 13.4809 20.341 13.4073L22.1541 12.671V12.6693C22.3227 12.5991 22.4555 12.4587 22.5202 12.2841L22.9389 11.0838Z" fill="white"/>
<path d="M23.7047 33.6672C28.1789 33.6741 32.423 31.6674 35.2711 28.1969L35.7937 30.4142C35.8635 30.7121 36.1274 30.9228 36.4304 30.9228C36.4832 30.9313 36.536 30.9313 36.5871 30.9228C36.7556 30.8834 36.902 30.7789 36.9922 30.63C37.0825 30.481 37.108 30.3029 37.0672 30.1351L36.1955 26.5497V26.548C36.1819 26.5189 36.1683 26.4898 36.1512 26.4607C36.1359 26.4127 36.1155 26.3648 36.09 26.3203C36.0576 26.2843 36.0236 26.2484 35.9861 26.2158L35.9163 26.1542C35.8652 26.1268 35.8141 26.1045 35.7597 26.084H35.4107L35.3238 26.1285C35.2762 26.1405 35.2336 26.161 35.1928 26.1901C35.1519 26.2192 35.1127 26.2552 35.0804 26.2946C35.0804 26.2946 35.0361 26.2946 35.0191 26.3562C33.2588 28.9657 30.6608 30.8886 27.661 31.8029C24.6613 32.7172 21.4387 32.5683 18.5357 31.38C17.1635 30.8253 15.8952 30.0462 14.7784 29.0736C14.5043 28.8322 14.0872 28.8596 13.8455 29.1353C13.6054 29.411 13.6327 29.8304 13.9068 30.0736C15.1496 31.1335 16.5575 31.981 18.0727 32.5803C19.8636 33.3046 21.7755 33.6727 23.7044 33.6676L23.7047 33.6672Z" fill="white"/>
<path d="M27.7672 1.89685C27.6463 1.77357 27.4812 1.70508 27.3092 1.70508C27.1373 1.70508 26.9721 1.77357 26.8513 1.89685L24.158 4.35221C24.0814 4.41042 24.0218 4.48918 23.9843 4.57993C23.9809 4.60904 23.9809 4.63815 23.9843 4.66726C23.9792 4.71691 23.9792 4.76657 23.9843 4.81622C23.9707 4.89498 23.9707 4.97375 23.9843 5.05251V5.10558C24.0065 5.16894 24.0388 5.22715 24.0797 5.28023H24.1239C24.1733 5.32646 24.2278 5.36413 24.2891 5.39495H24.4117C24.4491 5.40009 24.4866 5.40009 24.524 5.39495C27.6616 5.56617 30.6408 6.8315 32.9494 8.97525C35.2579 11.1172 36.751 14.0025 37.1715 17.1339C37.3724 18.591 37.3281 20.0738 37.0421 21.5172C37.0046 21.6867 37.0387 21.8665 37.1323 22.0121C37.2277 22.1593 37.3775 22.2603 37.546 22.2963H37.6771C37.987 22.2929 38.2542 22.0754 38.3223 21.7706C38.6373 20.1766 38.6884 18.5414 38.4705 16.9319C38.0125 13.778 36.562 10.8571 34.3301 8.59352C32.0999 6.33164 29.2074 4.84714 26.0764 4.3609L27.7329 2.81819H27.7312C27.8589 2.70005 27.9338 2.53739 27.9406 2.36443C27.9457 2.1915 27.8847 2.02355 27.7672 1.89685Z" fill="white"/>
<path d="M6.81173 23.9632C6.76066 24.131 6.77938 24.3125 6.86281 24.4649C6.94793 24.619 7.08923 24.732 7.25607 24.7782L10.8125 25.8483C10.8738 25.8603 10.9351 25.8603 10.9964 25.8483C11.0883 25.8483 11.1785 25.8244 11.2585 25.7781C11.3045 25.7507 11.3488 25.7182 11.3879 25.6823L11.4407 25.6292C11.4748 25.5761 11.5037 25.5213 11.5275 25.4631V25.4186C11.5326 25.3895 11.5326 25.3604 11.5275 25.3312C11.5326 25.2782 11.5326 25.2251 11.5275 25.1737C11.5173 25.1189 11.5037 25.0658 11.485 25.0145C11.4884 24.9888 11.4884 24.9631 11.485 24.9357C10.0787 22.1482 9.69399 18.9516 10.3971 15.9052C11.1002 12.8609 12.8452 10.1609 15.3289 8.27911C16.5104 7.37505 17.8332 6.6696 19.2412 6.19362C19.4182 6.1491 19.568 6.03267 19.6566 5.87172C19.7434 5.71248 19.7621 5.52242 19.7042 5.34949C19.648 5.17484 19.5204 5.03272 19.3552 4.95739C19.1901 4.88205 18.9994 4.87862 18.8326 4.94883C17.2851 5.46935 15.8329 6.24155 14.5356 7.23639C12.0142 9.15238 10.1824 11.8406 9.3157 14.8971C8.44914 17.9535 8.59558 21.2082 9.7328 24.174L7.52812 23.5165H7.52642C7.21147 23.4668 6.90705 23.6567 6.81173 23.9632Z" fill="white"/>
</svg>
