<svg width="38" height="41" viewBox="0 0 38 41" fill="none" xmlns="http://www.w3.org/2000/svg">
<path d="M18.5311 8.28405C19.7781 8.28405 20.9424 8.7508 21.8124 9.60242C22.668 10.4329 23.1484 11.532 23.162 12.698C23.1684 13.1806 23.5725 13.5681 24.0702 13.5681H28.4759C28.7302 13.5681 28.9736 13.4651 29.1452 13.2828C29.3169 13.1005 29.4022 12.8574 29.3804 12.6108C29.1597 10.1599 28.0436 7.84459 26.239 6.09381C24.1801 4.0982 21.4437 3 18.5311 3C12.5216 3 7.63278 7.74067 7.63278 13.5681V15.4184C5.563 15.8279 4 17.606 4 19.7328V33.8236C4 36.2516 6.03708 38.227 8.54098 38.227H28.5213C31.0252 38.227 33.0623 36.2516 33.0623 33.8236V19.7328C33.0623 17.3048 31.0252 15.3294 28.5213 15.3294H13.8902V12.7843C13.8902 10.3034 15.9727 8.28405 18.5311 8.28405ZM31.2459 19.7328V33.8236C31.2459 35.2802 30.0234 36.4656 28.5213 36.4656H8.54098C7.03882 36.4656 5.81639 35.2802 5.81639 33.8236V19.7328C5.81639 18.2762 7.03882 17.0908 8.54098 17.0908H28.5213C30.0234 17.0908 31.2459 18.2762 31.2459 19.7328ZM9.44917 15.3294V13.5681C9.44917 8.71205 13.5233 4.76135 18.5311 4.76135C20.9587 4.76135 23.2401 5.67637 24.9548 7.33908C26.2208 8.56762 27.0791 10.1273 27.4287 11.8067H24.9058C24.7014 10.5069 24.0766 9.30651 23.1003 8.35979C21.8896 7.17528 20.2667 6.5227 18.532 6.5227C14.971 6.5227 12.0748 9.33117 12.0748 12.7843V15.3294H9.45008H9.44917Z" fill="white"/>
<path d="M16.9621 25.3738V27.026C16.9621 27.9308 17.7457 28.6672 18.7086 28.6672C19.6715 28.6672 20.4551 27.9308 20.4551 27.026V25.3732C21.1805 24.8595 21.6194 24.0514 21.6194 23.1964C21.6194 22.3571 21.2183 21.5759 20.5174 21.0534C19.817 20.5304 18.9059 20.3406 18.0176 20.5364C16.9766 20.764 16.1395 21.542 15.8857 22.5174C15.6021 23.6089 16.0312 24.7173 16.9621 25.3738ZM17.0174 22.7767C17.1658 22.2072 17.6741 21.7345 18.2819 21.6016C18.4268 21.5699 18.5706 21.5545 18.7121 21.5545C19.1062 21.5545 19.4794 21.676 19.7932 21.9101C20.2141 22.2236 20.4551 22.6925 20.4551 23.1964C20.4551 23.7806 20.1279 24.3086 19.5801 24.6084C19.4008 24.7069 19.2908 24.8868 19.2908 25.0811V27.026C19.2908 27.328 19.0299 27.573 18.7086 27.573C18.3872 27.573 18.1264 27.328 18.1264 27.026V25.0811C18.1264 24.8863 18.0164 24.7058 17.8371 24.6084C17.1472 24.2314 16.8259 23.5126 17.0174 22.7767Z" fill="white"/>
</svg>
