<svg width="27" height="34" viewBox="0 0 27 34" fill="none" xmlns="http://www.w3.org/2000/svg">
<path fill-rule="evenodd" clip-rule="evenodd" d="M5.62099 5.20538C3.75534 7.56383 3.17737 10.6795 3.34038 13.2191C3.35191 13.3867 3.21194 13.5304 3.02752 13.5408C2.8431 13.5498 2.68337 13.4226 2.67349 13.255C2.50224 10.6257 3.09503 7.35602 5.07757 4.85053C7.07659 2.32145 10.4589 0.611127 15.7526 1.07637C18.4185 1.30982 20.4338 2.23165 21.9374 3.55457C23.4375 4.87298 24.4123 6.57598 25.0298 8.35675C26.2631 11.9109 26.0919 15.8376 25.7526 17.8431C25.7247 18.0092 25.5534 18.123 25.3706 18.0975C25.1895 18.0721 25.0627 17.9164 25.0923 17.7503C25.4217 15.8034 25.5847 11.977 24.3925 8.53942C23.7964 6.82293 22.8694 5.22019 21.473 3.99162C20.0816 2.76749 18.2077 1.90253 15.6882 1.68106C10.61 1.23509 7.46859 2.86788 5.62099 5.20538ZM9.75569 6.38311C8.3824 7.20467 7.49979 8.49764 7.0124 10.2697C6.51018 12.0909 5.99641 13.5156 5.24228 14.4436C4.85861 14.915 4.40578 15.2681 3.85251 15.4791C3.30088 15.6901 2.67515 15.7485 1.96216 15.6677C1.77938 15.6467 1.6493 15.4941 1.6707 15.328C1.69376 15.1604 1.86172 15.0422 2.04449 15.0631C2.67022 15.1349 3.17409 15.0796 3.59398 14.9179C4.01387 14.7593 4.37615 14.4855 4.70381 14.0829C5.37068 13.2628 5.85975 11.9504 6.36197 10.1232C6.87903 8.24657 7.83572 6.80243 9.3885 5.87609C10.9347 4.95274 13.0243 4.56964 15.7411 4.7238C17.1407 4.80311 18.2538 5.20417 19.1265 5.8297C19.996 6.45224 20.6118 7.28729 21.0465 8.21512C21.911 10.0603 22.0773 12.317 22.0773 14.1486C22.0773 17.6983 24.0253 19.699 25.5468 20.2514C25.718 20.3143 25.802 20.4909 25.7329 20.6465C25.6637 20.8036 25.4694 20.8784 25.2982 20.8171C23.4737 20.1541 21.4072 17.8974 21.4072 14.1488C21.4072 12.3321 21.2392 10.1802 20.4307 8.45322C20.0289 7.59423 19.4724 6.85197 18.7116 6.30724C17.9542 5.764 16.9761 5.40335 15.6999 5.33152C13.0637 5.18187 11.1375 5.55854 9.75569 6.38311ZM16.3519 9.52723C15.4874 8.67421 14.1965 8.3824 12.782 8.66823C11.4515 8.9376 10.5887 10.021 10.0124 11.4771C9.44262 12.9212 9.19399 14.6377 9.0277 16.0069C8.93548 16.7552 8.6111 17.3523 8.11216 17.8117C7.61651 18.2666 6.96608 18.5719 6.23993 18.7724C4.79583 19.1705 2.98616 19.1645 1.30161 19.0119C1.11719 18.9954 0.982162 18.8458 1.00192 18.6796C1.02003 18.512 1.18305 18.3908 1.36747 18.4073C3.02728 18.5569 4.72992 18.5524 6.04571 18.1903C6.70108 18.0092 7.24115 17.7458 7.63634 17.3837C8.02495 17.026 8.28678 16.5576 8.36253 15.9396C8.52884 14.5718 8.78242 12.7909 9.38345 11.2719C9.97955 9.7619 10.956 8.41357 12.6372 8.07533C14.2328 7.75209 15.7856 8.06934 16.8444 9.11538C17.8982 10.1554 18.4005 11.8569 18.0596 14.1884C17.7155 16.5289 16.4311 19.4066 13.8623 21.6635C11.2837 23.9292 7.43051 25.5527 1.9935 25.3987C1.80908 25.3927 1.66253 25.2521 1.66911 25.0845C1.6757 24.9169 1.82884 24.7852 2.01326 24.7897C7.28081 24.9393 10.9562 23.371 13.3965 21.2265C15.845 19.076 17.0701 16.3286 17.3962 14.1077C17.7222 11.8794 17.223 10.3877 16.3519 9.52723ZM14.0055 11.4143C14.1883 11.3934 14.3562 11.5116 14.3793 11.6792C14.5555 12.9647 14.2047 15.7018 12.3572 18.123C10.4915 20.5652 7.1242 22.6619 1.33479 22.6619C1.15037 22.6619 1.00052 22.5258 1.00052 22.3582C1.00052 22.1906 1.15037 22.0544 1.33479 22.0544C6.91849 22.0544 10.075 20.0461 11.8075 17.7759C13.5562 15.4848 13.8724 12.9002 13.7159 11.7539C13.6929 11.5878 13.8227 11.4353 14.0055 11.4143ZM19.0656 17.493C19.25 17.493 19.3999 17.6292 19.3999 17.7968C19.3999 18.7725 19.9433 19.9996 20.8753 21.0666C21.804 22.1306 23.0801 22.9926 24.4913 23.2769C24.6708 23.3143 24.7844 23.476 24.7449 23.6406C24.7053 23.8037 24.5259 23.9069 24.3464 23.871C22.7458 23.5478 21.3462 22.5855 20.35 21.4452C19.3587 20.3079 18.7314 18.9506 18.7314 17.7968C18.7314 17.6292 18.8812 17.493 19.0656 17.493ZM16.7241 20.5339C16.9085 20.5339 17.0584 20.67 17.0584 20.8376C17.0584 22.1291 17.6116 23.4355 18.4992 24.534C19.3867 25.6339 20.5904 26.5048 21.86 26.9373C22.0329 26.9972 22.1202 27.1723 22.0559 27.3294C21.9901 27.4865 21.7974 27.5658 21.6245 27.5075C20.2167 27.0271 18.9125 26.0753 17.9591 24.8946C17.0057 23.7124 16.3899 22.2832 16.3899 20.8375C16.3899 20.6699 16.5397 20.5339 16.7241 20.5339ZM13.9215 25.5862C14.8206 25.3004 15.6604 25.0938 16.3899 25.0938C16.5743 25.0938 16.7241 25.23 16.7241 25.3991C16.7241 25.5667 16.5743 25.7029 16.3899 25.7029C15.7806 25.7029 15.0297 25.878 14.1422 26.1608C13.5346 26.3539 12.8825 26.5918 12.186 26.8462C11.8666 26.9615 11.5389 27.0812 11.1997 27.2024C9.06403 27.9626 6.58766 28.7438 4.01037 28.7438C3.82595 28.7438 3.67611 28.6076 3.67611 28.4385C3.67611 28.2709 3.82595 28.1347 4.01037 28.1347C6.45235 28.1347 8.82687 27.3954 10.9561 26.6352C11.2821 26.52 11.6049 26.4018 11.921 26.2865C12.6258 26.0306 13.2991 25.7852 13.9215 25.5862ZM9.02791 31.0408C8.66564 31.2638 8.28199 31.4972 7.87032 31.7367C7.71389 31.8265 7.50806 31.7846 7.40924 31.6424C7.3088 31.5017 7.3549 31.3132 7.51133 31.2234C7.91476 30.9899 8.29021 30.7595 8.65408 30.5365C8.70019 30.5095 8.74629 30.4811 8.79075 30.4526C9.19418 30.2057 9.58607 29.9693 9.97469 29.7553C10.7569 29.3273 11.5472 28.9861 12.4792 28.8245C14.3449 28.5012 16.6847 28.9172 20.5479 30.5978C20.7158 30.6696 20.785 30.8507 20.706 31.0019C20.6269 31.1545 20.426 31.2189 20.2597 31.1455C16.4297 29.4799 14.2528 29.1372 12.6046 29.4216C11.7796 29.5652 11.065 29.869 10.3207 30.2761C9.9469 30.4811 9.56984 30.7101 9.16474 30.957C9.12028 30.9854 9.07401 31.0139 9.02791 31.0408ZM16.9086 32.663C15.6324 32.0839 13.4457 31.8205 11.9142 32.9339C11.7693 33.0386 11.5602 33.0162 11.4432 32.886C11.328 32.7543 11.3527 32.5627 11.4959 32.458C13.3105 31.1396 15.807 31.4838 17.2082 32.1198C17.3729 32.1946 17.4404 32.3772 17.358 32.5283C17.2741 32.678 17.0732 32.7393 16.9086 32.663Z" fill="white" stroke="white"/>
</svg>
