<svg width="109" height="55" viewBox="0 0 109 55" fill="none" xmlns="http://www.w3.org/2000/svg">
<path d="M0 41.6238L7.18243 46.3438V10.7444L10.3263 8.74437V7.52446L0 14.3043V41.6238Z" fill="#F75129"/>
<path d="M20.0876 27.0118V0.831142L13.3159 5.4453V31.6528L10.3262 33.7018V34.8004L20.0876 28.176V54.375L26.8286 49.6465V23.6012L29.8314 21.5633V20.3338L20.0876 27.0118Z" fill="#F75129"/>
<path d="M32.5644 10.2029L32.5852 44.61L29.8315 46.6168V47.6836L39.0105 41.2824V14.6609L32.5644 10.2029Z" fill="#F75129"/>
<path d="M92.5103 45.253C91.6645 45.253 90.9484 45.0622 90.362 44.6807C89.7755 44.2859 89.3301 43.6873 89.0256 42.8847C88.7211 42.0821 88.5688 41.0625 88.5688 39.8257C88.5688 38.5758 88.7211 37.5561 89.0256 36.7667C89.3301 35.9641 89.7812 35.3721 90.3789 34.9905C90.9766 34.5958 91.7209 34.3984 92.6118 34.3984C93.4351 34.3984 94.123 34.5892 94.6756 34.9708C95.2395 35.3523 95.6624 35.9049 95.9443 36.6286C96.2375 37.3522 96.3841 38.2403 96.3841 39.2929V40.2007H89.8376C89.8376 41.1085 89.9447 41.8519 90.159 42.4308C90.3732 43.0097 90.6777 43.4307 91.0724 43.6939C91.4784 43.9439 91.9746 44.0689 92.5611 44.0689C92.9896 44.0689 93.3618 44.0031 93.6775 43.8715C94.0046 43.7399 94.2696 43.5623 94.4726 43.3386C94.6869 43.1018 94.8504 42.8255 94.9632 42.5098C95.0759 42.194 95.1323 41.8651 95.1323 41.523H96.3165C96.3165 42.0361 96.2319 42.5229 96.0627 42.9834C95.9048 43.4307 95.668 43.8255 95.3522 44.1675C95.0477 44.5096 94.6587 44.7793 94.185 44.9767C93.7114 45.1609 93.1531 45.253 92.5103 45.253ZM89.8376 39.0758H95.1154C95.1154 38.4179 95.0477 37.8719 94.9124 37.4377C94.7884 36.9904 94.6136 36.6351 94.388 36.372C94.1625 36.0957 93.8918 35.8983 93.576 35.7799C93.2715 35.6615 92.9276 35.6023 92.5442 35.6023C91.9916 35.6023 91.5179 35.7273 91.1232 35.9773C90.7285 36.2141 90.424 36.5891 90.2097 37.1022C90.0067 37.6153 89.8827 38.2732 89.8376 39.0758Z" fill="white"/>
<path d="M74.2007 45.0162V34.6353H75.1649L75.2833 36.2733H75.4017C75.6498 35.7997 75.9205 35.4313 76.2137 35.1681C76.5069 34.8918 76.8283 34.6945 77.1779 34.5761C77.5275 34.4576 77.8997 34.3984 78.2944 34.3984C78.8921 34.3984 79.4052 34.5432 79.8338 34.8326C80.2623 35.1089 80.5668 35.5892 80.7472 36.2733H80.8487C81.0856 35.8128 81.3506 35.451 81.6438 35.1879C81.937 34.9116 82.2584 34.7142 82.608 34.5958C82.9689 34.4642 83.3467 34.3984 83.7414 34.3984C84.2715 34.3984 84.7395 34.5037 85.1455 34.7142C85.5514 34.9247 85.8672 35.2734 86.0928 35.7602C86.3296 36.247 86.448 36.9049 86.448 37.7337V45.0162H85.23V37.8916C85.23 37.4443 85.1793 37.0759 85.0778 36.7864C84.9876 36.4838 84.8579 36.2536 84.6887 36.0957C84.5196 35.9378 84.3222 35.826 84.0967 35.7602C83.8711 35.6944 83.6286 35.6615 83.3693 35.6615C82.9407 35.6615 82.5404 35.7931 82.1682 36.0562C81.8073 36.3062 81.5085 36.668 81.2717 37.1417C81.0461 37.6153 80.9333 38.1942 80.9333 38.8784V45.0162H79.7154V37.8916C79.7154 37.4443 79.6702 37.0759 79.58 36.7864C79.4898 36.4838 79.3601 36.2536 79.191 36.0957C79.0218 35.9378 78.8244 35.826 78.5989 35.7602C78.3846 35.6944 78.1534 35.6615 77.9053 35.6615C77.4768 35.6615 77.0708 35.7931 76.6874 36.0562C76.3152 36.3062 76.0107 36.668 75.7739 37.1417C75.5371 37.6153 75.4186 38.1942 75.4186 38.8784V45.0162H74.2007Z" fill="white"/>
<path d="M66.9595 45.253C66.6099 45.253 66.2659 45.2004 65.9276 45.0951C65.5892 45.003 65.2848 44.8517 65.0141 44.6412C64.7547 44.4175 64.5461 44.1215 64.3882 43.7531C64.2303 43.3847 64.1514 42.9308 64.1514 42.3913C64.1514 41.6809 64.298 41.1019 64.5912 40.6546C64.8957 40.1941 65.3186 39.8389 65.8599 39.5889C66.4012 39.3257 67.0384 39.1481 67.7714 39.056C68.5157 38.9639 69.3221 38.9179 70.1904 38.9179V37.5956C70.1904 37.1746 70.1228 36.8193 69.9875 36.5299C69.8634 36.2273 69.6379 35.997 69.3108 35.8391C68.995 35.6681 68.5439 35.5826 67.9575 35.5826C67.3936 35.5826 66.9482 35.6681 66.6211 35.8391C66.2941 36.0102 66.0629 36.2338 65.9276 36.5101C65.8035 36.7733 65.7415 37.0693 65.7415 37.3982V37.714H64.5743C64.563 37.6482 64.5574 37.5824 64.5574 37.5167C64.5574 37.4509 64.5574 37.3719 64.5574 37.2798C64.5574 36.622 64.704 36.0825 64.9972 35.6615C65.2904 35.2405 65.7077 34.9247 66.249 34.7142C66.7903 34.5037 67.4106 34.3984 68.1098 34.3984C68.8202 34.3984 69.4179 34.5234 69.9029 34.7734C70.3878 35.0102 70.76 35.3523 71.0193 35.7997C71.2787 36.247 71.4084 36.7864 71.4084 37.418V43.3781C71.4084 43.6281 71.4479 43.8057 71.5268 43.911C71.617 44.0031 71.7355 44.0491 71.8821 44.0491H72.5925V44.957C72.4234 45.0359 72.2429 45.1017 72.0512 45.1543C71.8708 45.2069 71.6791 45.2333 71.4761 45.2333C71.1829 45.2333 70.946 45.1609 70.7656 45.0162C70.5964 44.8714 70.4724 44.6675 70.3934 44.4044C70.3258 44.1412 70.2807 43.8518 70.2581 43.536H70.1397C69.9254 43.8912 69.6491 44.2004 69.3108 44.4636C68.9838 44.7136 68.6229 44.9043 68.2282 45.0359C67.8335 45.1806 67.4106 45.253 66.9595 45.253ZM67.2132 44.0491C67.5854 44.0491 67.9462 43.9768 68.2958 43.832C68.6454 43.6873 68.9612 43.49 69.2431 43.24C69.5251 42.9768 69.7506 42.6676 69.9198 42.3124C70.1002 41.9572 70.1904 41.5624 70.1904 41.1283V40.0625C69.1416 40.0625 68.262 40.1283 67.5515 40.2599C66.8523 40.3915 66.3223 40.6217 65.9614 40.9506C65.6118 41.2796 65.437 41.7401 65.437 42.3321C65.437 42.7268 65.5103 43.0558 65.6569 43.3189C65.8148 43.5689 66.0291 43.7531 66.2997 43.8715C66.5704 43.9899 66.8749 44.0491 67.2132 44.0491Z" fill="white"/>
<path d="M52.2878 45.0171V31.4785H53.5904L59.528 40.8332C59.5956 40.9253 59.6746 41.0503 59.7648 41.2081C59.8663 41.366 59.9622 41.5305 60.0524 41.7015C60.1539 41.8594 60.2384 42.0041 60.3061 42.1357H60.3907C60.3907 41.912 60.3907 41.695 60.3907 41.4844C60.3907 41.2608 60.3907 41.0437 60.3907 40.8332V31.4785H61.6932V45.0171H60.526L54.47 35.4651C54.3911 35.3335 54.267 35.1296 54.0979 34.8533C53.9287 34.5638 53.7821 34.3204 53.6581 34.1231H53.5904C53.5904 34.3468 53.5904 34.5704 53.5904 34.7941C53.5904 35.0046 53.5904 35.2283 53.5904 35.4651V45.0171H52.2878Z" fill="white"/>
<path d="M102.922 23.3775C102.026 23.3775 101.247 23.1444 100.585 22.678C99.9374 22.1956 99.4343 21.4639 99.0759 20.483C98.7175 19.5021 98.5383 18.2478 98.5383 16.7201C98.5383 15.1924 98.7175 13.9461 99.0759 12.9813C99.448 12.0004 99.9511 11.2767 100.585 10.8104C101.233 10.344 101.977 10.1109 102.818 10.1109C103.287 10.1109 103.721 10.1752 104.121 10.3038C104.534 10.4164 104.893 10.6013 105.196 10.8586C105.513 11.1159 105.782 11.4295 106.002 11.7994H106.126V5.64844H109V23.0881H106.643L106.416 21.3755H106.271C105.913 22.0509 105.444 22.5574 104.865 22.8951C104.286 23.2167 103.638 23.3775 102.922 23.3775ZM103.831 20.6277C104.369 20.6277 104.803 20.483 105.134 20.1935C105.478 19.9041 105.733 19.486 105.899 18.9392C106.064 18.3925 106.147 17.7412 106.147 16.9854V16.5512C106.147 15.9884 106.099 15.4738 106.002 15.0075C105.919 14.5411 105.782 14.1552 105.589 13.8497C105.396 13.528 105.154 13.2868 104.865 13.126C104.576 12.9491 104.231 12.8607 103.831 12.8607C103.252 12.8607 102.791 12.9974 102.446 13.2707C102.101 13.528 101.853 13.9301 101.702 14.4768C101.55 15.0075 101.474 15.6748 101.474 16.4789V17.0337C101.474 17.8377 101.55 18.5051 101.702 19.0357C101.853 19.5664 102.101 19.9684 102.446 20.2418C102.791 20.4991 103.252 20.6277 103.831 20.6277Z" fill="#F75129"/>
<path d="M86.6382 23.0886V10.4008H89.0158L89.2433 12.1375H89.388C89.6361 11.7194 89.9325 11.3576 90.277 11.0521C90.6354 10.7465 91.0351 10.5133 91.4762 10.3525C91.9173 10.1917 92.3997 10.1113 92.9235 10.1113C93.6402 10.1113 94.2674 10.2641 94.8049 10.5696C95.3425 10.8752 95.756 11.3576 96.0455 12.0169C96.3487 12.6762 96.5003 13.5365 96.5003 14.5979V23.0886H93.6264V15.1285C93.6264 14.7265 93.5851 14.3888 93.5024 14.1155C93.4197 13.826 93.2956 13.5928 93.1302 13.4159C92.9786 13.223 92.7857 13.0863 92.5513 13.0059C92.317 12.9255 92.0551 12.8853 91.7657 12.8853C91.3384 12.8853 90.9524 13.0059 90.6078 13.2471C90.2633 13.4883 89.9945 13.818 89.8015 14.2361C89.6085 14.6542 89.5121 15.1366 89.5121 15.6833V23.0886H86.6382Z" fill="#F75129"/>
<path d="M77.5187 23.378C77.1603 23.378 76.7744 23.3298 76.3609 23.2333C75.9612 23.1368 75.5821 22.9679 75.2238 22.7267C74.8654 22.4694 74.569 22.1076 74.3347 21.6413C74.1142 21.1589 74.0039 20.5478 74.0039 19.8081C74.0039 18.9236 74.1693 18.1919 74.5001 17.613C74.8309 17.0341 75.2996 16.5839 75.906 16.2622C76.5263 15.9245 77.2637 15.6914 78.1183 15.5627C78.9729 15.4341 79.9171 15.3698 80.9508 15.3698V14.429C80.9508 14.0592 80.8957 13.7376 80.7854 13.4642C80.6889 13.1908 80.5097 12.9737 80.2479 12.8129C79.9998 12.6521 79.6483 12.5717 79.1934 12.5717C78.7386 12.5717 78.3664 12.636 78.0769 12.7647C77.8013 12.8933 77.6014 13.0622 77.4774 13.2712C77.3671 13.4642 77.312 13.6813 77.312 13.9225V14.2119H74.5208C74.507 14.1315 74.5001 14.0592 74.5001 13.9948C74.5001 13.9144 74.5001 13.818 74.5001 13.7054C74.5001 12.9657 74.6931 12.3305 75.079 11.7998C75.465 11.2531 76.0094 10.835 76.7124 10.5455C77.4153 10.2561 78.2355 10.1113 79.1727 10.1113C80.1789 10.1113 81.0197 10.2641 81.6951 10.5696C82.3843 10.8752 82.9081 11.3254 83.2665 11.9204C83.6386 12.5154 83.8247 13.2632 83.8247 14.1637V19.9287C83.8247 20.2181 83.8936 20.4352 84.0314 20.5799C84.1831 20.7086 84.3485 20.7729 84.5277 20.7729H85.2099V22.9679C85.0721 23.0483 84.8585 23.1288 84.569 23.2092C84.2796 23.3056 83.9281 23.3539 83.5146 23.3539C83.1148 23.3539 82.7565 23.2815 82.4394 23.1368C82.1362 23.0081 81.8812 22.8232 81.6745 22.582C81.4677 22.3247 81.323 22.0192 81.2403 21.6654H81.0955C80.8612 22.0031 80.5718 22.3006 80.2272 22.5579C79.8964 22.8152 79.5035 23.0162 79.0487 23.1609C78.6076 23.3056 78.0976 23.378 77.5187 23.378ZM78.4905 20.8453C78.8764 20.8453 79.221 20.781 79.5242 20.6523C79.8275 20.5076 80.0825 20.3226 80.2892 20.0975C80.496 19.8563 80.6545 19.5669 80.7647 19.2292C80.8888 18.8915 80.9508 18.5296 80.9508 18.1437V17.4442C80.1789 17.4442 79.4898 17.5085 78.8833 17.6372C78.2768 17.7497 77.7944 17.9507 77.436 18.2402C77.0914 18.5296 76.9191 18.9317 76.9191 19.4462C76.9191 19.7357 76.9812 19.985 77.1052 20.194C77.2293 20.4031 77.4084 20.5639 77.6428 20.6764C77.8771 20.789 78.1596 20.8453 78.4905 20.8453Z" fill="#F75129"/>
<path d="M66.9927 23.0892V10.4015H69.3703L69.5978 12.3794H69.7425C69.8803 11.9613 70.0595 11.5834 70.2801 11.2457C70.5006 10.8919 70.7763 10.6105 71.1071 10.4015C71.4379 10.1924 71.8238 10.0879 72.2649 10.0879C72.4992 10.0879 72.7129 10.1201 72.9058 10.1844C73.0988 10.2326 73.2435 10.2809 73.34 10.3291V13.3684H72.451C72.0237 13.3684 71.6446 13.4407 71.3138 13.5855C70.9968 13.7141 70.728 13.9232 70.5075 14.2126C70.2869 14.5021 70.1215 14.8559 70.0113 15.274C69.9148 15.6921 69.8665 16.1825 69.8665 16.7454V23.0892H66.9927Z" fill="#F75129"/>
<path d="M52.3198 23.0882V6.54102H60.4246C61.1689 6.54102 61.8374 6.70986 62.4301 7.04756C63.0365 7.38526 63.5121 7.85964 63.8567 8.47071C64.2013 9.08179 64.3735 9.79738 64.3735 10.6175C64.3735 11.2768 64.2702 11.8638 64.0634 12.3784C63.8567 12.8929 63.5741 13.3191 63.2157 13.6568C62.8711 13.9945 62.4783 14.2437 62.0372 14.4045V14.501C62.561 14.6297 63.0228 14.8709 63.4225 15.2247C63.836 15.5784 64.1599 16.0367 64.3942 16.5996C64.6423 17.1463 64.7664 17.7976 64.7664 18.5534C64.7664 19.5504 64.5665 20.3866 64.1668 21.062C63.7809 21.7374 63.264 22.2439 62.6161 22.5816C61.9683 22.9193 61.2447 23.0882 60.4452 23.0882H52.3198ZM55.4004 20.1454H59.8456C60.3556 20.1454 60.7691 19.9765 61.0862 19.6388C61.417 19.3011 61.5824 18.7785 61.5824 18.071C61.5824 17.6529 61.5135 17.291 61.3756 16.9855C61.2378 16.68 61.031 16.4468 60.7554 16.286C60.4797 16.1091 60.1282 16.0207 59.7009 16.0207H55.4004V20.1454ZM55.4004 13.2226H59.4942C59.8663 13.2226 60.1765 13.1422 60.4246 12.9814C60.6864 12.8045 60.8794 12.5794 61.0035 12.306C61.1413 12.0165 61.2102 11.6869 61.2102 11.317C61.2102 10.6899 61.0586 10.2155 60.7554 9.89387C60.4659 9.57225 60.08 9.41144 59.5975 9.41144H55.4004V13.2226Z" fill="#F75129"/>
</svg>
