<svg width="21" height="17" viewBox="0 0 21 17" fill="none" xmlns="http://www.w3.org/2000/svg">
<path d="M19.2433 15.8024H2.32198C1.97137 15.8024 1.63512 15.6631 1.3872 15.4152C1.13928 15.1672 1 14.831 1 14.4804V2.32198C1 1.97137 1.13928 1.63512 1.3872 1.3872C1.63512 1.13928 1.97137 1 2.32198 1H19.2433C19.5939 1 19.9301 1.13928 20.178 1.3872C20.426 1.63512 20.5652 1.97137 20.5652 2.32198V14.4804C20.5652 14.831 20.426 15.1672 20.178 15.4152C19.9301 15.6631 19.5939 15.8024 19.2433 15.8024ZM2.32198 1.75541C2.17171 1.75541 2.02761 1.81511 1.92136 1.92136C1.81511 2.02761 1.75541 2.17171 1.75541 2.32198V14.4804C1.75541 14.6306 1.81511 14.7747 1.92136 14.881C2.02761 14.9872 2.17171 15.0469 2.32198 15.0469H19.2433C19.3935 15.0469 19.5376 14.9872 19.6439 14.881C19.7501 14.7747 19.8098 14.6306 19.8098 14.4804V2.32198C19.8098 2.17171 19.7501 2.02761 19.6439 1.92136C19.5376 1.81511 19.3935 1.75541 19.2433 1.75541H2.32198Z" fill="#FD6C1F" stroke="#FD6C1F" stroke-width="0.7"/>
<path d="M11.1831 8.75106L1.45337 1.68037L1.89529 1.07227L11.168 7.81057L19.6778 1.30267L20.1348 1.90322L11.1831 8.75106Z" fill="#FD6C1F" stroke="#FD6C1F" stroke-width="0.7"/>
</svg>
