<svg width="40" height="41" viewBox="0 0 40 41" fill="none" xmlns="http://www.w3.org/2000/svg">
<path d="M34.9227 8.88232C35.032 8.71555 35.0245 8.49761 34.9058 8.33842C34.7852 8.17924 34.5799 8.1148 34.3896 8.17544L30.6895 9.37317L30.3165 5.42568C30.2977 5.22669 30.1564 5.06181 29.9642 5.01443C29.772 4.96516 29.5704 5.04476 29.4593 5.21153L25.1375 11.7819C25.1168 11.8122 25.1112 11.8482 25.098 11.8823C23.3365 11.1432 21.4658 10.7699 19.529 10.7699C11.5186 10.7699 5 17.3271 5 25.3849C5 33.4428 11.5167 40 19.529 40C27.5413 40 34.058 33.4447 34.058 25.3849C34.058 21.7407 32.7448 18.3144 30.3447 15.6325C30.4464 15.6003 30.5388 15.5472 30.599 15.4563L34.9208 8.88591L34.9227 8.88232ZM29.51 6.84131L29.8133 10.0441C29.8265 10.1862 29.9038 10.3132 30.0224 10.3928C30.1411 10.4723 30.2862 10.4913 30.4218 10.4477L33.4079 9.48309L29.949 14.7382L26.7764 14.9126L26.0341 12.1249L29.5081 6.84306L29.51 6.84131ZM19.529 39.058C12.0347 39.058 5.93617 32.9253 5.93617 25.3846C5.93617 17.844 12.0328 11.7112 19.529 11.7112C21.5505 11.7112 23.4891 12.149 25.3016 13.0056L25.9119 15.2987L23.6323 18.6056C22.4341 17.8704 21.0325 17.4363 19.5291 17.4363C15.1735 17.4363 11.6278 21.003 11.6278 25.3845C11.6278 29.7661 15.1734 33.3307 19.5291 33.3307C23.8849 33.3307 27.4305 29.7641 27.4305 25.3845C27.4305 22.8526 26.2436 20.5975 24.403 19.1402L26.6637 15.8598L29.1411 15.7233C31.707 18.3063 33.1238 21.727 33.1238 25.3845C33.1238 32.9232 27.0252 39.0579 19.5309 39.0579L19.529 39.058ZM19.5535 24.5244C19.546 24.5244 19.5384 24.5225 19.529 24.5225C19.0562 24.5225 18.6719 24.9092 18.6719 25.3848C18.6719 25.8604 19.0562 26.2471 19.529 26.2471C20.0019 26.2471 20.3862 25.8605 20.3862 25.3848C20.3862 25.2692 20.3636 25.1612 20.3221 25.0588L21.1699 23.827C21.5524 24.2344 21.7898 24.7783 21.7898 25.381C21.7898 26.6355 20.7762 27.6551 19.529 27.6551C18.2819 27.6551 17.2683 26.6355 17.2683 25.381C17.2683 24.1264 18.2819 23.105 19.529 23.105C19.838 23.105 20.1356 23.1675 20.4051 23.2831L19.5535 24.5206L19.5535 24.5244ZM19.529 22.1669C17.7657 22.1669 16.332 23.611 16.332 25.3829C16.332 27.1567 17.7657 28.5989 19.529 28.5989C21.2924 28.5989 22.7261 27.1567 22.7261 25.3829C22.7261 24.46 22.3323 23.6318 21.7087 23.0444L23.8678 19.9118C25.4653 21.1966 26.4921 23.1694 26.4921 25.3828C26.4921 29.245 23.3685 32.3888 19.5273 32.3888C15.686 32.3888 12.5626 29.2467 12.5626 25.3828C12.5626 21.5206 15.6862 18.3768 19.5273 18.3768C20.8329 18.3768 22.0518 18.7463 23.0974 19.3793L20.9384 22.5138C20.5107 22.2996 20.036 22.1688 19.5292 22.1688L19.529 22.1669Z" fill="white" stroke="white" stroke-width="0.8"/>
</svg>
