<svg width="40" height="41" viewBox="0 0 40 41" fill="none" xmlns="http://www.w3.org/2000/svg">
<path d="M4.64063 35.0846C4.83381 35.1397 5.04121 35.1171 5.21591 35.0197C5.39204 34.9223 5.5213 34.76 5.5767 34.568L8.45026 24.5743H10.9091C11.1875 24.5743 11.4432 24.4219 11.5767 24.1791L16.3025 15.4555L19.3835 19.7409V19.7423C19.5255 19.9399 19.7556 20.0571 19.9999 20.0571H22.517L25.3565 27.1118C25.473 27.3984 25.7514 27.5847 26.061 27.5847H27.821L30.6604 34.6395V34.6409C30.7343 34.8258 30.8806 34.9754 31.0653 35.0545C31.2499 35.1335 31.4587 35.1363 31.6463 35.0615C31.8323 34.9867 31.9815 34.8413 32.061 34.6578C32.1406 34.4743 32.142 34.2668 32.0667 34.0805L29.0369 26.5527C28.9218 26.2661 28.6434 26.0798 28.3338 26.0798H26.5738L24.7585 21.5712L27.4588 18.3599L29.9489 22.6889C30.0838 22.9233 30.3338 23.0672 30.6065 23.0672H33.0909L34.4332 27.0689V27.0703C34.5653 27.4641 34.9943 27.6773 35.3906 27.546C35.7883 27.4147 36.0028 26.9884 35.8707 26.5932L34.3551 22.0763C34.2514 21.7685 33.963 21.5624 33.6363 21.5624H31.0454L28.2329 16.6715C28.1107 16.4569 27.8891 16.3172 27.642 16.2946C27.3962 16.2748 27.1548 16.375 26.9943 16.5628L24.1193 19.9815L23.7329 19.0231H23.7343C23.6179 18.738 23.3395 18.5502 23.0298 18.5502H20.3892L16.9702 13.7919V11.4882L21.8553 9.06181L21.8538 9.0604C22.1109 8.93336 22.2729 8.67223 22.2729 8.38708C22.2729 8.10195 22.1109 7.84223 21.8538 7.71376L16.5513 5.07839V5.0798C16.3169 4.96264 16.0371 4.97535 15.8141 5.11226C15.5911 5.24919 15.4547 5.49198 15.4547 5.75309V13.8442L10.4576 23.0672H7.87952C7.54145 23.0672 7.24315 23.2902 7.15083 23.6134L4.12101 34.1535C4.00595 34.553 4.23891 34.9693 4.6409 35.0837L4.64063 35.0846ZM16.9701 9.80518V6.97221L19.8209 8.38801L16.9701 9.80518Z" fill="white"/>
</svg>
